<svg xmlns="http://www.w3.org/2000/svg" viewBox="0 0 580 340" width="580" height="340" font-family="monospace" font-size="12">
  <rect width="580" height="340" fill="#0f1117" rx="12"/>
  <text x="290" y="26" fill="#e2e8f0" font-size="14" font-weight="bold" text-anchor="middle">Min-Heap — Tree View and Array Storage</text>

  <!-- ── TREE (top half) ── -->
  <!-- edges -->
  <line x1="290" y1="72"  x2="178" y2="118" stroke="#475569" stroke-width="1.5"/>
  <line x1="290" y1="72"  x2="402" y2="118" stroke="#475569" stroke-width="1.5"/>
  <line x1="178" y1="138" x2="122" y2="182" stroke="#475569" stroke-width="1.5"/>
  <line x1="178" y1="138" x2="234" y2="182" stroke="#475569" stroke-width="1.5"/>
  <line x1="402" y1="138" x2="346" y2="182" stroke="#475569" stroke-width="1.5"/>
  <line x1="402" y1="138" x2="458" y2="182" stroke="#475569" stroke-width="1.5"/>
  <line x1="122" y1="202" x2="94"  y2="236" stroke="#475569" stroke-width="1.5"/>
  <line x1="122" y1="202" x2="150" y2="236" stroke="#475569" stroke-width="1.5"/>

  <!-- nodes: index 0=1, 1=3, 2=5, 3=4, 4=8, 5=6, 6=9, 7=7, 8=10 -->
  <circle cx="290" cy="58"  r="22" fill="#1e3a5f" stroke="#3b82f6" stroke-width="2"/>
  <text x="290" y="63"  fill="#7dd3fc" font-size="14" font-weight="bold" text-anchor="middle">1</text>
  <text x="314" y="50"  fill="#475569" font-size="9">[0]</text>

  <circle cx="178" cy="128" r="20" fill="#1e293b" stroke="#475569" stroke-width="1.5"/>
  <text x="178" y="134" fill="#94a3b8" font-size="14" font-weight="bold" text-anchor="middle">3</text>
  <text x="158" y="116" fill="#475569" font-size="9">[1]</text>

  <circle cx="402" cy="128" r="20" fill="#1e293b" stroke="#475569" stroke-width="1.5"/>
  <text x="402" y="134" fill="#94a3b8" font-size="14" font-weight="bold" text-anchor="middle">5</text>
  <text x="424" y="116" fill="#475569" font-size="9">[2]</text>

  <circle cx="122" cy="192" r="18" fill="#1e293b" stroke="#475569" stroke-width="1.5"/>
  <text x="122" y="198" fill="#94a3b8" font-size="13" font-weight="bold" text-anchor="middle">4</text>
  <text x="100" y="180" fill="#475569" font-size="9">[3]</text>

  <circle cx="234" cy="192" r="18" fill="#1e293b" stroke="#475569" stroke-width="1.5"/>
  <text x="234" y="198" fill="#94a3b8" font-size="13" font-weight="bold" text-anchor="middle">8</text>
  <text x="254" y="180" fill="#475569" font-size="9">[4]</text>

  <circle cx="346" cy="192" r="18" fill="#1e293b" stroke="#475569" stroke-width="1.5"/>
  <text x="346" y="198" fill="#94a3b8" font-size="13" font-weight="bold" text-anchor="middle">6</text>
  <text x="326" y="180" fill="#475569" font-size="9">[5]</text>

  <circle cx="458" cy="192" r="18" fill="#1e293b" stroke="#475569" stroke-width="1.5"/>
  <text x="458" y="198" fill="#94a3b8" font-size="13" font-weight="bold" text-anchor="middle">9</text>
  <text x="478" y="180" fill="#475569" font-size="9">[6]</text>

  <circle cx="94"  cy="248" r="15" fill="#14532d" stroke="#22c55e" stroke-width="1.5"/>
  <text x="94"  y="253" fill="#86efac" font-size="12" font-weight="bold" text-anchor="middle">7</text>
  <text x="75"  y="238" fill="#475569" font-size="9">[7]</text>

  <circle cx="150" cy="248" r="15" fill="#14532d" stroke="#22c55e" stroke-width="1.5"/>
  <text x="150" y="253" fill="#86efac" font-size="12" font-weight="bold" text-anchor="middle">10</text>
  <text x="166" y="238" fill="#475569" font-size="9">[8]</text>

  <!-- ── ARRAY (bottom half) ── -->
  <text x="290" y="287" fill="#94a3b8" font-size="11" font-weight="bold" text-anchor="middle">Array representation (0-indexed)</text>

  <!-- cells -->
  <rect x="30"  y="296" width="52" height="32" fill="#1e3a5f" stroke="#3b82f6" stroke-width="1.5" rx="3"/>
  <text x="56"  y="317" fill="#7dd3fc" font-size="13" font-weight="bold" text-anchor="middle">1</text>
  <text x="56"  y="296" fill="#475569" font-size="9" text-anchor="middle">i=0</text>

  <rect x="86"  y="296" width="52" height="32" fill="#1e293b" stroke="#475569" stroke-width="1" rx="3"/>
  <text x="112" y="317" fill="#94a3b8" font-size="13" font-weight="bold" text-anchor="middle">3</text>
  <text x="112" y="296" fill="#475569" font-size="9" text-anchor="middle">i=1</text>

  <rect x="142" y="296" width="52" height="32" fill="#1e293b" stroke="#475569" stroke-width="1" rx="3"/>
  <text x="168" y="317" fill="#94a3b8" font-size="13" font-weight="bold" text-anchor="middle">5</text>
  <text x="168" y="296" fill="#475569" font-size="9" text-anchor="middle">i=2</text>

  <rect x="198" y="296" width="52" height="32" fill="#1e293b" stroke="#475569" stroke-width="1" rx="3"/>
  <text x="224" y="317" fill="#94a3b8" font-size="13" font-weight="bold" text-anchor="middle">4</text>
  <text x="224" y="296" fill="#475569" font-size="9" text-anchor="middle">i=3</text>

  <rect x="254" y="296" width="52" height="32" fill="#1e293b" stroke="#475569" stroke-width="1" rx="3"/>
  <text x="280" y="317" fill="#94a3b8" font-size="13" font-weight="bold" text-anchor="middle">8</text>
  <text x="280" y="296" fill="#475569" font-size="9" text-anchor="middle">i=4</text>

  <rect x="310" y="296" width="52" height="32" fill="#1e293b" stroke="#475569" stroke-width="1" rx="3"/>
  <text x="336" y="317" fill="#94a3b8" font-size="13" font-weight="bold" text-anchor="middle">6</text>
  <text x="336" y="296" fill="#475569" font-size="9" text-anchor="middle">i=5</text>

  <rect x="366" y="296" width="52" height="32" fill="#1e293b" stroke="#475569" stroke-width="1" rx="3"/>
  <text x="392" y="317" fill="#94a3b8" font-size="13" font-weight="bold" text-anchor="middle">9</text>
  <text x="392" y="296" fill="#475569" font-size="9" text-anchor="middle">i=6</text>

  <rect x="422" y="296" width="52" height="32" fill="#14532d" stroke="#22c55e" stroke-width="1" rx="3"/>
  <text x="448" y="317" fill="#86efac" font-size="13" font-weight="bold" text-anchor="middle">7</text>
  <text x="448" y="296" fill="#475569" font-size="9" text-anchor="middle">i=7</text>

  <rect x="478" y="296" width="52" height="32" fill="#14532d" stroke="#22c55e" stroke-width="1" rx="3"/>
  <text x="504" y="317" fill="#86efac" font-size="13" font-weight="bold" text-anchor="middle">10</text>
  <text x="504" y="296" fill="#475569" font-size="9" text-anchor="middle">i=8</text>

  <!-- Index arithmetic legend -->
  <rect x="30" y="334" width="520" height="0" fill="none"/>
  <text x="56"  y="335" fill="#475569" font-size="9" text-anchor="middle">root</text>
  <text x="290" y="338" fill="#475569" font-size="10" text-anchor="middle">parent(i) = (i−1)÷2   left(i) = 2i+1   right(i) = 2i+2   ·   heap[0] is always the minimum</text>
</svg>
